{
	"asset":{
		"generator":"Khronos glTF Blender I/O v4.4.56",
		"version":"2.0"
	},
	"extensionsUsed":[
		"KHR_materials_transmission"
	],
	"scene":0,
	"scenes":[
		{
			"name":"Scene",
			"nodes":[
				0
			]
		}
	],
	"nodes":[
		{
			"mesh":0,
			"name":"FinalBaseMesh",
			"rotation":[
				0.7071068286895752,
				3.944723721360788e-05,
				-3.944723721360788e-05,
				0.7071068286895752
			],
			"translation":[
				-6.295857019722462e-06,
				0.9997045993804932,
				-0.015903934836387634
			]
		}
	],
	"materials":[
		{
			"extensions":{
				"KHR_materials_transmission":{
					"transmissionFactor":1
				}
			},
			"name":"default",
			"pbrMetallicRoughness":{
				"metallicFactor":0.019999999552965164,
				"roughnessFactor":0
			}
		}
	],
	"meshes":[
		{
			"name":"FinalBaseMesh",
			"primitives":[
				{
					"attributes":{
						"POSITION":0,
						"NORMAL":1
					},
					"indices":2,
					"material":0
				}
			]
		}
	],
	"accessors":[
		{
			"bufferView":0,
			"componentType":5126,
			"count":156662,
			"max":[
				0.5818663239479065,
				0.20927175879478455,
				0.9965510964393616
			],
			"min":[
				-0.5818835496902466,
				-0.1657664179801941,
				-1.0695321559906006
			],
			"type":"VEC3"
		},
		{
			"bufferView":1,
			"componentType":5126,
			"count":156662,
			"type":"VEC3"
		},
		{
			"bufferView":2,
			"componentType":5125,
			"count":939222,
			"type":"SCALAR"
		}
	],
	"bufferViews":[
		{
			"buffer":0,
			"byteLength":1879944,
			"byteOffset":0,
			"target":34962
		},
		{
			"buffer":0,
			"byteLength":1879944,
			"byteOffset":1879944,
			"target":34962
		},
		{
			"buffer":0,
			"byteLength":3756888,
			"byteOffset":3759888,
			"target":34963
		}
	],
	"buffers":[
		{
			"byteLength":7516776,
			"uri":"TWYN_01.bin"
		}
	]
}
